<?xml version="1.0" encoding="UTF-8"?>
<svg version="1.1" xmlns="http://www.w3.org/2000/svg" width="797" height="527">
<path d="M0 0 C0.70032349 0.00215515 1.40064697 0.0043103 2.12219238 0.00653076 C13.06384312 0.06040751 23.61498775 0.57443581 34.25 3.3125 C35.04760742 3.51649414 35.84521484 3.72048828 36.66699219 3.93066406 C60.90225894 10.32207606 82.87106542 21.06080674 101.25 38.3125 C101.85440918 38.87453125 102.45881836 39.4365625 103.08154297 40.015625 C133.00294791 68.09794334 148.77866038 104.47240131 151.25 145.3125 C151.31058594 146.29992187 151.37117188 147.28734375 151.43359375 148.3046875 C152.31101301 181.44016786 141.02441504 216.46716475 120.25 242.3125 C119.55390625 243.2096875 118.8578125 244.106875 118.140625 245.03125 C91.83087509 278.24497684 54.35993855 296.05871333 12.9375 301.5625 C-5.94402219 303.71548891 -5.94402219 303.71548891 -10.75 301.3125 C-12.09496547 301.09563987 -13.44688248 300.92092 -14.80078125 300.76953125 C-51.07099681 296.38090182 -80.08203625 282.07884324 -106.75 257.3125 C-107.35457031 256.76207031 -107.95914063 256.21164062 -108.58203125 255.64453125 C-134.29804682 231.25346262 -148.64376861 193.8841817 -150.5390625 159.046875 C-150.67803531 156.36040452 -150.67803531 156.36040452 -151.28710938 153.98144531 C-156.19380044 125.69033418 -140.35885185 87.83420431 -124.49609375 65.0078125 C-119.66023227 58.39740011 -114.38211551 52.25297611 -108.75 46.3125 C-107.85667969 45.35472656 -106.96335937 44.39695313 -106.04296875 43.41015625 C-87.89689666 24.33810667 -65.26833853 12.44717555 -40.1875 5.0625 C-39.36161377 4.81604736 -38.53572754 4.56959473 -37.68481445 4.31567383 C-25.27496319 0.81135956 -12.84816556 -0.07163835 0 0 Z " fill="#212121" transform="translate(397.75,10.6875)"/>
<path d="M0 0 C14.31763986 5.31138253 25.98624911 16.78379659 37 27 C37.60328125 27.54914063 38.2065625 28.09828125 38.828125 28.6640625 C50.61897236 39.84883826 59.32967894 53.86650099 65 69 C65.39574219 70.00804688 65.79148437 71.01609375 66.19921875 72.0546875 C70.02028836 82.80731146 71.10726058 94.6054704 67 105.4375 C64.12774746 111.32601775 60.36474001 116.14709828 56 121 C55.29617188 121.78407227 55.29617188 121.78407227 54.578125 122.58398438 C49.92527817 127.74648582 45.25551995 132.86517045 40.1875 137.625 C27.19477923 150.42758339 23.89988436 166.64015747 23.6875 184.1875 C23.68486847 190.42948467 24.3288597 195.97287661 26.34375 201.93359375 C27 204 27 204 27 207 C27.66 207 28.32 207 29 207 C29 207.99 29 208.98 29 210 C18.44 210 7.88 210 -3 210 C-5.44128635 205.11742731 -4.24502442 197.89915387 -4.25 192.4375 C-4.25100708 191.68457672 -4.25201416 190.93165344 -4.25305176 190.15591431 C-4.22960522 164.37679506 0.84892601 143.02251654 19 124 C20.87178992 122.26535615 22.76677608 120.55529951 24.6875 118.875 C33.50110863 111.11902441 42.02248187 100.4260677 43.2734375 88.36328125 C44.17519404 61.27590224 26.13729537 38.05296262 10 18 C9.96261719 18.75023438 9.92523438 19.50046875 9.88671875 20.2734375 C9.12446537 32.14067639 5.64628995 41.08239389 0.2578125 51.5625 C-2.17689666 56.30793839 -4.47249571 61.11502481 -6.75 65.9375 C-7.11432129 66.70570068 -7.47864258 67.47390137 -7.85400391 68.26538086 C-13.52957465 80.28736599 -18.72598863 91.49529875 -14.87890625 105.02734375 C-11.30887079 113.04009 -2.8860794 119.45663897 5 122.875 C6.485 123.431875 6.485 123.431875 8 124 C6.54815191 127.02122674 4.89389322 129.84168993 3.125 132.6875 C0.3254019 137.30546451 -1.95051764 142.00890768 -4 147 C-19.28572922 141.26785154 -33.67186062 130.92769134 -41 116 C-44.60274981 107.17326297 -44.15334461 97.15665153 -40.875 88.3125 C-39.9537488 86.19183587 -38.99663835 84.08629627 -38 82 C-37.38318359 80.68322266 -37.38318359 80.68322266 -36.75390625 79.33984375 C-31.36920637 68.7462057 -23.85282794 59.24108489 -16.8359375 49.69140625 C-6.09017721 34.94530091 3.02002445 21.15018338 0.5 2.25 C0.2525 1.13625 0.2525 1.13625 0 0 Z " fill="#FBFBFB" transform="translate(386,52)"/>
<path d="M0 0 C3.89608498 1.48904175 7.59097018 3.24378713 11.3125 5.125 C12.38113281 5.66382813 13.44976562 6.20265625 14.55078125 6.7578125 C15.76314453 7.37269531 15.76314453 7.37269531 17 8 C16.47558199 11.1729938 16.07882758 12.88855412 14.1875 15.5625 C7.71818046 24.94656791 6.27362508 36.91570493 8 48 C10.57503484 56.43934777 15.11885279 61.73276792 22 67 C22.99 67.99 23.98 68.98 25 70 C13.78 70 2.56 70 -9 70 C-17.57354271 51.13820603 -17.57354271 51.13820603 -17.5 39.875 C-17.49427979 38.85962158 -17.48855957 37.84424316 -17.48266602 36.7980957 C-17.1832367 24.13032019 -13.33682461 13.7231303 -5 4 C-2.0625 1.375 -2.0625 1.375 0 0 Z " fill="#FBFBFB" transform="translate(433,192)"/>
<path d="M0 0 C3.20170243 1.48676756 5.95207316 3.31188899 8.8125 5.375 C12.77906923 8.18416853 16.73871975 10.66835609 21 13 C22.31393012 13.74749174 23.6264547 14.49746 24.9375 15.25 C25.948125 15.8275 26.95875 16.405 28 17 C27.85652682 19.14599243 27.71008875 21.29178669 27.5625 23.4375 C27.48128906 24.63246094 27.40007812 25.82742187 27.31640625 27.05859375 C27.10595324 29.68016269 26.83391602 32.2975311 26.5 34.90625 C25.65913139 42.25423252 25.63153279 49.67583476 25.4375 57.0625 C25.293125 62.321875 25.14875 67.58125 25 73 C12.46 73 -0.08 73 -13 73 C-11.02 70.36 -9.04 67.72 -7 65 C1.69104205 52.99537983 2.24787755 40.94007097 2.3125 26.5625 C2.31813965 25.34127441 2.3237793 24.12004883 2.32958984 22.86181641 C2.28058146 16.83046293 1.96509654 11.70111011 0 6 C-0.125 2.5625 -0.125 2.5625 0 0 Z " fill="#F8F8F8" transform="translate(351,189)"/>
<path d="M0 0 C2.97 0 5.94 0 9 0 C11.07735281 2.17918383 11.98979015 3.50712587 13.25 6.125 C13.98646957 7.49446541 14.72487712 8.86288974 15.46484375 10.23046875 C15.8604248 10.98634277 16.25600586 11.7422168 16.66357422 12.52099609 C19.21535819 17.25442949 22.04374991 21.82885582 24.8125 26.4375 C25.90618835 28.26723869 26.99618217 30.09919203 28.08203125 31.93359375 C28.54843018 32.71790771 29.0148291 33.50222168 29.49536133 34.31030273 C31.4520676 37.8081176 33.20760449 41.41520898 35 45 C35.33 30.15 35.66 15.3 36 0 C38.31 0 40.62 0 43 0 C43 20.13 43 40.26 43 61 C35 61 35 61 33.16992188 59.48388672 C32.77353516 58.76475098 32.37714844 58.04561523 31.96875 57.3046875 C31.49179687 56.4806543 31.01484375 55.65662109 30.5234375 54.80761719 C29.76933594 53.41784668 29.76933594 53.41784668 29 52 C27.78290975 49.93912307 26.56406675 47.87928055 25.34375 45.8203125 C24.05935479 43.59035027 22.77815553 41.35854451 21.5 39.125 C20.86191406 38.01769531 20.22382813 36.91039062 19.56640625 35.76953125 C15.61447045 28.89203152 11.80057997 21.96772994 8 15 C7.67 30.18 7.34 45.36 7 61 C4.69 61 2.38 61 0 61 C0 40.87 0 20.74 0 0 Z " fill="#5B5B5B" transform="translate(403,437)"/>
<path d="M0 0 C1.38832031 -0.04350586 1.38832031 -0.04350586 2.8046875 -0.08789062 C8.94697991 -0.14428173 13.82909995 0.61405857 18.875 4.3125 C21.77486272 7.69450373 23.10228336 10.91778742 23.375 15.375 C22.66004333 21.00528374 20.03533393 24.56819946 15.875 28.3125 C17.2671875 29.364375 17.2671875 29.364375 18.6875 30.4375 C22.45086519 33.63146715 24.50854779 36.62065968 25.19140625 41.63671875 C25.4738403 47.5860553 24.6375667 52.5626709 20.875 57.3125 C11.23874143 65.02597844 0.01254171 62.3125 -12.125 62.3125 C-12.125 42.1825 -12.125 22.0525 -12.125 1.3125 C-8.43046644 -0.53476678 -4.06686111 0.0414422 0 0 Z M-4.125 7.3125 C-4.125 13.5825 -4.125 19.8525 -4.125 26.3125 C4.6145349 26.5574732 4.6145349 26.5574732 11.875 23.3125 C14.18370892 20.06587808 14.875 18.16581805 14.875 14.1875 C13.54332628 10.35893807 12.43777026 9.27565912 8.875 7.3125 C4.32921268 6.38449238 0.31384912 5.83288363 -4.125 7.3125 Z M-4.125 32.3125 C-4.125 39.9025 -4.125 47.4925 -4.125 55.3125 C-0.18662792 57.28168604 4.66685136 56.07815751 8.875 55.3125 C12.43580921 53.56333056 14.23119963 52.34817886 16.3125 49 C17.07153674 45.37349111 16.83506591 42.89674608 15.875 39.3125 C12.70675616 35.23904363 9.90834933 33.37724697 4.875 32.3125 C1.905 32.3125 -1.065 32.3125 -4.125 32.3125 Z " fill="#5B5B5B" transform="translate(24.125,346.6875)"/>
<path d="M0 0 C2.65282698 1.39468477 3.96511707 2.73901896 6 5 C6.33 3.68 6.66 2.36 7 1 C9.31 1 11.62 1 14 1 C14.07461488 7.22555982 14.1288209 13.45085456 14.16479492 19.67675781 C14.17980487 21.7910618 14.2002192 23.90533507 14.22631836 26.01953125 C14.26304633 29.07299421 14.27980474 32.12604257 14.29296875 35.1796875 C14.30845261 36.11239471 14.32393646 37.04510193 14.33988953 38.006073 C14.34179028 45.55715283 13.46458662 52.86930888 8.6875 58.9375 C3.35940523 63.02650296 -0.76656902 64.41605751 -7.5 64.375 C-8.7684375 64.38273438 -10.036875 64.39046875 -11.34375 64.3984375 C-15.20218216 63.97796733 -17.67046621 62.94222805 -21 61 C-20.67 58.69 -20.34 56.38 -20 54 C-18.6078125 54.495 -18.6078125 54.495 -17.1875 55 C-11.14066363 56.69951816 -4.58107236 57.3695486 1.0625 54.375 C4.43491219 50.24107538 5.30966009 46.26422155 5 41 C4.2575 41.66 3.515 42.32 2.75 43 C-2.02113091 46.18075394 -7.51069287 45.72486036 -13 45 C-18.60526469 42.55406632 -21.333525 38.32219809 -24 33 C-24.8125 30.625 -24.8125 30.625 -25 28 C-25.061875 27.29359375 -25.12375 26.5871875 -25.1875 25.859375 C-25.56196647 18.41685395 -24.31029152 10.76001932 -19.24609375 5.0078125 C-13.19764425 -0.27037517 -7.99963986 -0.97912259 0 0 Z M-14 12 C-16.95112604 17.93670102 -17.81263653 23.57118245 -16 30 C-12.77915651 35.75762401 -12.77915651 35.75762401 -7.25 38.8125 C-3.22184249 39.0448937 -1.36758068 38.17021866 2 36 C6.62949432 31.0512302 6.28181033 25.38953549 6.21875 18.91796875 C5.87234862 14.29722171 4.35956765 11.51063072 1.3125 8.125 C-5.12291964 4.99425531 -9.96601906 6.35242668 -14 12 Z " fill="#5B5B5B" transform="translate(523,453)"/>
<path d="M0 0 C0.7425 -0.01224609 1.485 -0.02449219 2.25 -0.03710938 C6.77177483 -0.04909288 10.36558122 0.4769715 14.625 2.1875 C13.875 7.9375 13.875 7.9375 11.625 10.1875 C10.861875 9.8575 10.09875 9.5275 9.3125 9.1875 C2.4206012 7.3185105 -4.94926288 7.19708823 -11.58984375 10.07421875 C-16.56383459 13.17616052 -19.51965397 17.71997587 -21.375 23.1875 C-22.95909123 31.61895333 -22.5001682 39.2596262 -18.6875 47 C-15.35093012 51.59905578 -11.77976796 53.38591068 -6.375 55.1875 C-3.80002932 55.25785439 -1.26050071 55.2809934 1.3125 55.25 C3.725625 55.229375 6.13875 55.20875 8.625 55.1875 C8.625 49.2475 8.625 43.3075 8.625 37.1875 C4.665 37.1875 0.705 37.1875 -3.375 37.1875 C-3.375 34.8775 -3.375 32.5675 -3.375 30.1875 C3.225 30.1875 9.825 30.1875 16.625 30.1875 C16.625 40.0875 16.625 49.9875 16.625 60.1875 C9.83043276 62.45235575 5.38311567 63.66842846 -1.4375 63.5625 C-2.18837891 63.57410156 -2.93925781 63.58570313 -3.71289062 63.59765625 C-11.49132955 63.55731862 -17.99915681 61.34430726 -23.76953125 56.0625 C-31.48817105 47.04803016 -32.03341934 36.54212793 -31.375 25.1875 C-30.22289028 17.55609436 -26.9031321 11.56708344 -21.375 6.1875 C-14.38024214 1.24516688 -8.47551433 0.00728137 0 0 Z " fill="#5B5B5B" transform="translate(204.375,345.8125)"/>
<path d="M0 0 C2.64 0 5.28 0 8 0 C8.01981934 1.13429443 8.03963867 2.26858887 8.06005859 3.43725586 C8.13663829 7.68111846 8.22527121 11.92466136 8.31738281 16.16821289 C8.35545768 17.9982264 8.39034638 19.82830927 8.421875 21.65844727 C8.46799633 24.30249685 8.52590831 26.94607758 8.5859375 29.58984375 C8.59748871 30.39646957 8.60903992 31.2030954 8.62094116 32.03416443 C8.81809664 39.77494026 9.28376056 47.28376056 15 53 C18.49417832 54.74708916 22.18750851 54.56386429 26 54 C29.46750138 52.30639933 31.55598334 50.00023212 33.13427734 46.44482422 C34.26902148 41.92952816 34.35514528 37.64727382 34.4140625 33.0078125 C34.43342865 32.06187225 34.4527948 31.11593201 34.4727478 30.1413269 C34.53227049 27.13597478 34.57881946 24.13058379 34.625 21.125 C34.66320492 19.08071296 34.70225811 17.03644158 34.7421875 14.9921875 C34.83794954 9.9949197 34.92208114 4.99757658 35 0 C37.64 0 40.28 0 43 0 C43.09948619 6.22553948 43.17175931 12.45060782 43.21972656 18.67675781 C43.23974016 20.79109772 43.26695972 22.90538299 43.30175781 25.01953125 C43.35072941 28.07305448 43.37307182 31.12584078 43.390625 34.1796875 C43.41127014 35.11239471 43.43191528 36.04510193 43.45318604 37.006073 C43.45553806 44.01393725 42.2791459 51.15278909 37.58770752 56.6569519 C31.44403356 62.06687122 25.3464467 62.50282377 17.45703125 62.37890625 C11.09442792 61.68153617 7.70801061 58.9776965 3.625 54.25 C0.05947587 47.11895174 -0.28825123 39.78682555 -0.1953125 31.93359375 C-0.1924826 31.01409439 -0.18965271 30.09459503 -0.18673706 29.14723206 C-0.17564584 26.24384907 -0.15056263 23.34078791 -0.125 20.4375 C-0.11495588 18.45508262 -0.10583255 16.47266034 -0.09765625 14.49023438 C-0.07574286 9.66003445 -0.04129081 4.83007157 0 0 Z " fill="#5B5B5B" transform="translate(439,347)"/>
<path d="M0 0 C2.64 0 5.28 0 8 0 C8.33 7.92 8.66 15.84 9 24 C10.65 22.68 12.3 21.36 14 20 C17.71236414 18.14381793 21.94843088 18.55190019 26 19 C30.48035444 21.19944673 32.86312614 23.50131818 35 28 C36.26385487 31.76929643 36.11332479 35.44215399 36.09765625 39.390625 C36.0962413 40.09523865 36.09482635 40.79985229 36.09336853 41.52581787 C36.08778933 43.76725584 36.07524073 46.00859243 36.0625 48.25 C36.05748231 49.77343605 36.05291987 51.29687368 36.04882812 52.8203125 C36.03782674 56.54690772 36.02057646 60.27344396 36 64 C33.36 64 30.72 64 28 64 C27.98018066 63.19369141 27.96036133 62.38738281 27.93994141 61.55664062 C27.84414315 57.87078949 27.7346864 54.18546293 27.625 50.5 C27.5940625 49.2315625 27.563125 47.963125 27.53125 46.65625 C27.32764441 40.14087105 26.93734046 34.23729125 25 28 C23.58566794 27.7763663 22.16832382 27.57173524 20.75 27.375 C19.96109375 27.25898438 19.1721875 27.14296875 18.359375 27.0234375 C15.50436366 26.99507646 14.30083534 27.29814246 12 29 C9.35634182 33.42386513 8.60162688 36.80646482 8.48828125 41.9296875 C8.45283203 43.21875 8.41738281 44.5078125 8.38085938 45.8359375 C8.35776507 47.18228642 8.33498245 48.52864072 8.3125 49.875 C8.27929117 51.24482371 8.24479825 52.61461692 8.20898438 53.984375 C8.12669841 57.3228341 8.05748072 60.66103685 8 64 C5.36 64 2.72 64 0 64 C0 42.88 0 21.76 0 0 Z " fill="#5C5C5C" transform="translate(294,434)"/>
<path d="M0 0 C5.45937406 4.12781941 8.7647871 8.26617093 10.5625 14.9375 C11.45918419 23.15362956 10.91174958 30.76458377 6.5625 37.9375 C2.86999954 42.22687039 -1.70331946 44.61714642 -7.3046875 45.2734375 C-13.96873891 45.35998362 -18.10170009 45.05051243 -23.4375 40.9375 C-28.63291824 35.74208176 -30.59001063 29.73090466 -30.8125 22.5 C-30.58654589 15.09486756 -28.88062187 8.22942404 -23.4375 2.9375 C-16.57969414 -2.46119823 -8.20837119 -2.53713291 0 0 Z M-17.4375 7.9375 C-21.15222281 12.95739569 -22.69973996 17.66472019 -22.4375 23.9375 C-21.3493691 29.84999887 -19.37270659 34.26478812 -14.4375 37.9375 C-11.46244043 39.03697854 -9.6314135 39.34989656 -6.60546875 38.3046875 C-2.15808537 36.07631435 -0.06965488 33.74328936 1.5625 28.9375 C3.14196989 22.39750747 2.591875 16.97285713 -0.4375 10.9375 C-2.94218031 7.688185 -4.50048123 6.25648511 -8.375 4.9375 C-12.3233634 4.9375 -14.19185524 5.67966016 -17.4375 7.9375 Z " fill="#5B5B5B" transform="translate(202.4375,454.0625)"/>
<path d="M0 0 C5.45937406 4.12781941 8.7647871 8.26617093 10.5625 14.9375 C11.45918419 23.15362956 10.91174958 30.76458377 6.5625 37.9375 C2.86999954 42.22687039 -1.70331946 44.61714642 -7.3046875 45.2734375 C-13.96873891 45.35998362 -18.10170009 45.05051243 -23.4375 40.9375 C-28.63291824 35.74208176 -30.59001063 29.73090466 -30.8125 22.5 C-30.58654589 15.09486756 -28.88062187 8.22942404 -23.4375 2.9375 C-16.57969414 -2.46119823 -8.20837119 -2.53713291 0 0 Z M-17.4375 7.9375 C-21.15222281 12.95739569 -22.69973996 17.66472019 -22.4375 23.9375 C-21.3493691 29.84999887 -19.37270659 34.26478812 -14.4375 37.9375 C-11.46244043 39.03697854 -9.6314135 39.34989656 -6.60546875 38.3046875 C-2.15808537 36.07631435 -0.06965488 33.74328936 1.5625 28.9375 C3.14196989 22.39750747 2.591875 16.97285713 -0.4375 10.9375 C-2.94218031 7.688185 -4.50048123 6.25648511 -8.375 4.9375 C-12.3233634 4.9375 -14.19185524 5.67966016 -17.4375 7.9375 Z " fill="#5B5B5B" transform="translate(354.4375,364.0625)"/>
<path d="M0 0 C3.97386056 3.77516753 6.16777387 7.04609546 7.5 12.375 C7.5 16.005 7.5 19.635 7.5 23.375 C-2.07 23.375 -11.64 23.375 -21.5 23.375 C-19.29936343 31.90199731 -19.29936343 31.90199731 -13.5 36.375 C-7.09030264 37.89594514 -1.83407056 36.94553799 4.5 35.375 C4.995 38.84 4.995 38.84 5.5 42.375 C-1.92821615 45.23200621 -10.32690957 45.68394864 -18.078125 43.72265625 C-22.98179397 41.54220802 -25.97196432 38.05132351 -28.5 33.375 C-30.84850012 26.32949963 -30.71932284 16.19266897 -27.9375 9.25 C-22.36102174 -1.14614876 -10.78954232 -5.00943036 0 0 Z M-19.5 9.375 C-21.06978799 12.37186799 -21.5 13.98744725 -21.5 17.375 C-14.57 17.375 -7.64 17.375 -0.5 17.375 C-0.5 10.30764986 -0.95852864 10.02460163 -5.5 5.375 C-11.42387107 2.41306446 -15.23383716 5.01187892 -19.5 9.375 Z " fill="#5B5B5B" transform="translate(575.5,454.625)"/>
<path d="M0 0 C3.97386056 3.77516753 6.16777387 7.04609546 7.5 12.375 C7.5 16.005 7.5 19.635 7.5 23.375 C-2.07 23.375 -11.64 23.375 -21.5 23.375 C-19.29936343 31.90199731 -19.29936343 31.90199731 -13.5 36.375 C-7.09030264 37.89594514 -1.83407056 36.94553799 4.5 35.375 C4.995 38.84 4.995 38.84 5.5 42.375 C-1.92821615 45.23200621 -10.32690957 45.68394864 -18.078125 43.72265625 C-22.98179397 41.54220802 -25.97196432 38.05132351 -28.5 33.375 C-30.84850012 26.32949963 -30.71932284 16.19266897 -27.9375 9.25 C-22.36102174 -1.14614876 -10.78954232 -5.00943036 0 0 Z M-19.5 9.375 C-21.06978799 12.37186799 -21.5 13.98744725 -21.5 17.375 C-14.57 17.375 -7.64 17.375 -0.5 17.375 C-0.5 10.30764986 -0.95852864 10.02460163 -5.5 5.375 C-11.42387107 2.41306446 -15.23383716 5.01187892 -19.5 9.375 Z " fill="#5B5B5B" transform="translate(484.5,454.625)"/>
<path d="M0 0 C3.97386056 3.77516753 6.16777387 7.04609546 7.5 12.375 C7.5 16.005 7.5 19.635 7.5 23.375 C-2.07 23.375 -11.64 23.375 -21.5 23.375 C-19.29936343 31.90199731 -19.29936343 31.90199731 -13.5 36.375 C-7.09030264 37.89594514 -1.83407056 36.94553799 4.5 35.375 C4.995 38.84 4.995 38.84 5.5 42.375 C-1.92821615 45.23200621 -10.32690957 45.68394864 -18.078125 43.72265625 C-22.98179397 41.54220802 -25.97196432 38.05132351 -28.5 33.375 C-30.84850012 26.32949963 -30.71932284 16.19266897 -27.9375 9.25 C-22.36102174 -1.14614876 -10.78954232 -5.00943036 0 0 Z M-19.5 9.375 C-21.06978799 12.37186799 -21.5 13.98744725 -21.5 17.375 C-14.57 17.375 -7.64 17.375 -0.5 17.375 C-0.5 10.30764986 -0.95852864 10.02460163 -5.5 5.375 C-11.42387107 2.41306446 -15.23383716 5.01187892 -19.5 9.375 Z " fill="#5B5B5B" transform="translate(367.5,454.625)"/>
<path d="M0 0 C3.97386056 3.77516753 6.16777387 7.04609546 7.5 12.375 C7.5 16.005 7.5 19.635 7.5 23.375 C-2.07 23.375 -11.64 23.375 -21.5 23.375 C-19.29936343 31.90199731 -19.29936343 31.90199731 -13.5 36.375 C-7.09030264 37.89594514 -1.83407056 36.94553799 4.5 35.375 C4.995 38.84 4.995 38.84 5.5 42.375 C-1.92821615 45.23200621 -10.32690957 45.68394864 -18.078125 43.72265625 C-22.98179397 41.54220802 -25.97196432 38.05132351 -28.5 33.375 C-30.84850012 26.32949963 -30.71932284 16.19266897 -27.9375 9.25 C-22.36102174 -1.14614876 -10.78954232 -5.00943036 0 0 Z M-19.5 9.375 C-21.06978799 12.37186799 -21.5 13.98744725 -21.5 17.375 C-14.57 17.375 -7.64 17.375 -0.5 17.375 C-0.5 10.30764986 -0.95852864 10.02460163 -5.5 5.375 C-11.42387107 2.41306446 -15.23383716 5.01187892 -19.5 9.375 Z " fill="#5B5B5B" transform="translate(628.5,364.625)"/>
<path d="M0 0 C3.97386056 3.77516753 6.16777387 7.04609546 7.5 12.375 C7.5 16.005 7.5 19.635 7.5 23.375 C-2.07 23.375 -11.64 23.375 -21.5 23.375 C-19.29936343 31.90199731 -19.29936343 31.90199731 -13.5 36.375 C-7.09030264 37.89594514 -1.83407056 36.94553799 4.5 35.375 C4.995 38.84 4.995 38.84 5.5 42.375 C-1.92821615 45.23200621 -10.32690957 45.68394864 -18.078125 43.72265625 C-22.98179397 41.54220802 -25.97196432 38.05132351 -28.5 33.375 C-30.84850012 26.32949963 -30.71932284 16.19266897 -27.9375 9.25 C-22.36102174 -1.14614876 -10.78954232 -5.00943036 0 0 Z M-19.5 9.375 C-21.06978799 12.37186799 -21.5 13.98744725 -21.5 17.375 C-14.57 17.375 -7.64 17.375 -0.5 17.375 C-0.5 10.30764986 -0.95852864 10.02460163 -5.5 5.375 C-11.42387107 2.41306446 -15.23383716 5.01187892 -19.5 9.375 Z " fill="#5B5B5B" transform="translate(84.5,364.625)"/>
<path d="M0 0 C2.97 0 5.94 0 9 0 C10.40625025 3.93255314 11.8120825 7.86525537 13.2175293 11.7980957 C13.69560473 13.1357018 14.17379392 14.47326724 14.65209961 15.81079102 C15.33998113 17.73443063 16.02745207 19.65821655 16.71484375 21.58203125 C17.12855225 22.73936768 17.54226074 23.8967041 17.96850586 25.08911133 C18.66438042 27.05287757 19.34116624 29.02349871 20 31 C23.3 20.77 26.6 10.54 30 0 C32.97 0 35.94 0 39 0 C38.26259118 4.46626478 36.82666532 8.62456531 35.3046875 12.87109375 C34.89888962 14.00926292 34.89888962 14.00926292 34.4848938 15.17042542 C33.91015722 16.77731446 33.33344163 18.38349686 32.75488281 19.98901367 C31.89019719 22.39521016 31.03859736 24.80576671 30.1875 27.21679688 C19.98051557 55.81006408 19.98051557 55.81006408 10 62 C6.5 63.4375 6.5 63.4375 4 64 C2.74335022 61.09399739 2 59.20395416 2 56 C3.609375 54.82421875 3.609375 54.82421875 5.75 53.6875 C9.69852867 51.34918692 11.93823913 49.20942844 14 45 C14.57851029 39.58488616 12.94897343 35.55166516 10.9375 30.64453125 C10.62675537 29.86107834 10.31601074 29.07762543 9.99584961 28.27043152 C9.00684384 25.78048908 8.00439052 23.29627204 7 20.8125 C5.99742599 18.31735956 4.99785551 15.8211197 4.00415039 13.32243347 C3.38652499 11.77097391 2.76349323 10.22165336 2.13452148 8.67475891 C0.92066408 5.63826182 0 3.30211373 0 0 Z " fill="#5B5B5B" transform="translate(751,364)"/>
<path d="M0 0 C3.6664671 3.30876299 5.65713479 6.47910877 6.5625 11.3125 C6.64492194 13.77487767 6.66993299 16.23938768 6.66015625 18.703125 C6.6587413 19.40773865 6.65732635 20.11235229 6.65586853 20.83831787 C6.65028933 23.07975584 6.63774073 25.32109243 6.625 27.5625 C6.61998231 29.08593605 6.61541987 30.60937368 6.61132812 32.1328125 C6.60032674 35.85940772 6.58307646 39.58594396 6.5625 43.3125 C3.9225 43.3125 1.2825 43.3125 -1.4375 43.3125 C-1.45731934 42.50619141 -1.47713867 41.69988281 -1.49755859 40.86914062 C-1.59335685 37.18328949 -1.7028136 33.49796293 -1.8125 29.8125 C-1.8434375 28.5440625 -1.874375 27.275625 -1.90625 25.96875 C-2.10985559 19.45337105 -2.50015954 13.54979125 -4.4375 7.3125 C-5.85183206 7.0888663 -7.26917618 6.88423524 -8.6875 6.6875 C-9.47640625 6.57148438 -10.2653125 6.45546875 -11.078125 6.3359375 C-13.97172735 6.30719311 -15.13517513 6.53343078 -17.4375 8.3125 C-21.54472559 14.86338383 -20.9920911 22.22735606 -21.125 29.75 C-21.15916016 31.05388672 -21.19332031 32.35777344 -21.22851562 33.70117188 C-21.31066153 36.90486198 -21.3799241 40.10828979 -21.4375 43.3125 C-24.0775 43.3125 -26.7175 43.3125 -29.4375 43.3125 C-29.4375 28.7925 -29.4375 14.2725 -29.4375 -0.6875 C-27.1275 -0.6875 -24.8175 -0.6875 -22.4375 -0.6875 C-22.1075 0.6325 -21.7775 1.9525 -21.4375 3.3125 C-20.674375 2.673125 -19.91125 2.03375 -19.125 1.375 C-13.49856186 -2.94296416 -6.25900745 -3.07260366 0 0 Z " fill="#5B5B5B" transform="translate(524.4375,364.6875)"/>
<path d="M0 0 C3.6664671 3.30876299 5.65713479 6.47910877 6.5625 11.3125 C6.64492194 13.77487767 6.66993299 16.23938768 6.66015625 18.703125 C6.6587413 19.40773865 6.65732635 20.11235229 6.65586853 20.83831787 C6.65028933 23.07975584 6.63774073 25.32109243 6.625 27.5625 C6.61998231 29.08593605 6.61541987 30.60937368 6.61132812 32.1328125 C6.60032674 35.85940772 6.58307646 39.58594396 6.5625 43.3125 C3.9225 43.3125 1.2825 43.3125 -1.4375 43.3125 C-1.45731934 42.50619141 -1.47713867 41.69988281 -1.49755859 40.86914062 C-1.59335685 37.18328949 -1.7028136 33.49796293 -1.8125 29.8125 C-1.8434375 28.5440625 -1.874375 27.275625 -1.90625 25.96875 C-2.10985559 19.45337105 -2.50015954 13.54979125 -4.4375 7.3125 C-5.85183206 7.0888663 -7.26917618 6.88423524 -8.6875 6.6875 C-9.47640625 6.57148438 -10.2653125 6.45546875 -11.078125 6.3359375 C-13.97172735 6.30719311 -15.13517513 6.53343078 -17.4375 8.3125 C-21.54472559 14.86338383 -20.9920911 22.22735606 -21.125 29.75 C-21.15916016 31.05388672 -21.19332031 32.35777344 -21.22851562 33.70117188 C-21.31066153 36.90486198 -21.3799241 40.10828979 -21.4375 43.3125 C-24.0775 43.3125 -26.7175 43.3125 -29.4375 43.3125 C-29.4375 28.7925 -29.4375 14.2725 -29.4375 -0.6875 C-27.1275 -0.6875 -24.8175 -0.6875 -22.4375 -0.6875 C-22.1075 0.6325 -21.7775 1.9525 -21.4375 3.3125 C-20.674375 2.673125 -19.91125 2.03375 -19.125 1.375 C-13.49856186 -2.94296416 -6.25900745 -3.07260366 0 0 Z " fill="#5B5B5B" transform="translate(403.4375,364.6875)"/>
<path d="M0 0 C3.6664671 3.30876299 5.65713479 6.47910877 6.5625 11.3125 C6.64492194 13.77487767 6.66993299 16.23938768 6.66015625 18.703125 C6.6587413 19.40773865 6.65732635 20.11235229 6.65586853 20.83831787 C6.65028933 23.07975584 6.63774073 25.32109243 6.625 27.5625 C6.61998231 29.08593605 6.61541987 30.60937368 6.61132812 32.1328125 C6.60032674 35.85940772 6.58307646 39.58594396 6.5625 43.3125 C3.9225 43.3125 1.2825 43.3125 -1.4375 43.3125 C-1.45731934 42.50619141 -1.47713867 41.69988281 -1.49755859 40.86914062 C-1.59335685 37.18328949 -1.7028136 33.49796293 -1.8125 29.8125 C-1.8434375 28.5440625 -1.874375 27.275625 -1.90625 25.96875 C-2.10985559 19.45337105 -2.50015954 13.54979125 -4.4375 7.3125 C-5.85183206 7.0888663 -7.26917618 6.88423524 -8.6875 6.6875 C-9.47640625 6.57148438 -10.2653125 6.45546875 -11.078125 6.3359375 C-13.97172735 6.30719311 -15.13517513 6.53343078 -17.4375 8.3125 C-21.54472559 14.86338383 -20.9920911 22.22735606 -21.125 29.75 C-21.15916016 31.05388672 -21.19332031 32.35777344 -21.22851562 33.70117188 C-21.31066153 36.90486198 -21.3799241 40.10828979 -21.4375 43.3125 C-24.0775 43.3125 -26.7175 43.3125 -29.4375 43.3125 C-29.4375 28.7925 -29.4375 14.2725 -29.4375 -0.6875 C-27.1275 -0.6875 -24.8175 -0.6875 -22.4375 -0.6875 C-22.1075 0.6325 -21.7775 1.9525 -21.4375 3.3125 C-20.674375 2.673125 -19.91125 2.03375 -19.125 1.375 C-13.49856186 -2.94296416 -6.25900745 -3.07260366 0 0 Z " fill="#5B5B5B" transform="translate(130.4375,364.6875)"/>
<path d="M0 0 C2.64 0 5.28 0 8 0 C8.01458252 0.87736816 8.02916504 1.75473633 8.04418945 2.65869141 C8.1054968 5.93549321 8.17969333 9.21148944 8.26245117 12.48779297 C8.29556291 13.9017449 8.32363716 15.31582464 8.34643555 16.72998047 C8.38023775 18.77105823 8.43255964 20.81097928 8.48828125 22.8515625 C8.51446533 24.07697754 8.54064941 25.30239258 8.56762695 26.56494141 C9.03937315 30.31280647 10.04259958 32.7859635 12 36 C14.85324437 37.42662219 16.83454549 37.31033868 20 37 C22.69990662 35.20006226 24.5418865 33.916227 26 31 C26.15520557 28.67726841 26.25019167 26.35040687 26.31640625 24.0234375 C26.33718735 23.33819 26.35796844 22.6529425 26.37937927 21.94692993 C26.44480185 19.75638931 26.50372554 17.56572811 26.5625 15.375 C26.60569218 13.8906125 26.6493067 12.40623722 26.69335938 10.921875 C26.80047553 7.28137916 26.90176362 3.64074749 27 0 C29.64 0 32.28 0 35 0 C35.33 14.52 35.66 29.04 36 44 C33.36 44 30.72 44 28 44 C27.67 42.68 27.34 41.36 27 40 C25.824375 40.9590625 25.824375 40.9590625 24.625 41.9375 C19.67912119 45.82354763 15.13739164 45.60680426 9 45 C4.28933992 42.89702675 2.52121871 40.71378208 0.59994507 35.97579956 C-0.41202515 32.64307726 -0.36833287 29.32288715 -0.29296875 25.87890625 C-0.28660149 24.76176491 -0.28660149 24.76176491 -0.28010559 23.62205505 C-0.26345724 21.26848527 -0.22583375 18.91580621 -0.1875 16.5625 C-0.17243515 14.95639267 -0.15874991 13.35027177 -0.14648438 11.74414062 C-0.11359952 7.82908953 -0.06191626 3.91469521 0 0 Z " fill="#5B5B5B" transform="translate(231,364)"/>
<path d="M0 0 C2.97 0 5.94 0 9 0 C12.63 10.56 16.26 21.12 20 32 C23.24931978 21.84396453 23.24931978 21.84396453 26.49194336 11.68579102 C26.89550049 10.42951904 27.29905762 9.17324707 27.71484375 7.87890625 C27.92564575 7.21467651 28.13644775 6.55044678 28.3536377 5.86608887 C29.8859282 1.1140718 29.8859282 1.1140718 31 0 C32.51928038 -0.07179964 34.04167482 -0.08392007 35.5625 -0.0625 C36.38878906 -0.05347656 37.21507812 -0.04445313 38.06640625 -0.03515625 C38.70449219 -0.02355469 39.34257813 -0.01195312 40 0 C39.53944214 1.25321045 39.53944214 1.25321045 39.06958008 2.53173828 C37.90420207 5.70375496 36.73939781 8.8759812 35.57495117 12.04833984 C35.0758233 13.40779604 34.5764826 14.76717411 34.0769043 16.12646484 C30.66866925 25.40043373 27.30659269 34.68925946 24 44 C21.03 44 18.06 44 15 44 C12.85759452 38.21816422 10.72151671 32.43404589 8.59130859 26.64770508 C7.86551244 24.6789627 7.13798119 22.71085909 6.40869141 20.7434082 C5.36165525 17.91783513 4.32084909 15.09003517 3.28125 12.26171875 C2.95314331 11.38037766 2.62503662 10.49903656 2.2869873 9.59098816 C1.83652039 8.3600518 1.83652039 8.3600518 1.37695312 7.10424805 C1.11047974 6.38254929 0.84400635 5.66085052 0.56945801 4.9172821 C0 3 0 3 0 0 Z " fill="#5B5B5B" transform="translate(587,454)"/>
<path d="M0 0 C2.97 0 5.94 0 9 0 C12.63 10.56 16.26 21.12 20 32 C23.24931978 21.84396453 23.24931978 21.84396453 26.49194336 11.68579102 C26.89550049 10.42951904 27.29905762 9.17324707 27.71484375 7.87890625 C27.92564575 7.21467651 28.13644775 6.55044678 28.3536377 5.86608887 C29.8859282 1.1140718 29.8859282 1.1140718 31 0 C32.51928038 -0.07179964 34.04167482 -0.08392007 35.5625 -0.0625 C36.38878906 -0.05347656 37.21507812 -0.04445313 38.06640625 -0.03515625 C38.70449219 -0.02355469 39.34257813 -0.01195312 40 0 C39.53944214 1.25321045 39.53944214 1.25321045 39.06958008 2.53173828 C37.90420207 5.70375496 36.73939781 8.8759812 35.57495117 12.04833984 C35.0758233 13.40779604 34.5764826 14.76717411 34.0769043 16.12646484 C30.66866925 25.40043373 27.30659269 34.68925946 24 44 C21.03 44 18.06 44 15 44 C12.85759452 38.21816422 10.72151671 32.43404589 8.59130859 26.64770508 C7.86551244 24.6789627 7.13798119 22.71085909 6.40869141 20.7434082 C5.36165525 17.91783513 4.32084909 15.09003517 3.28125 12.26171875 C2.95314331 11.38037766 2.62503662 10.49903656 2.2869873 9.59098816 C1.83652039 8.3600518 1.83652039 8.3600518 1.37695312 7.10424805 C1.11047974 6.38254929 0.84400635 5.66085052 0.56945801 4.9172821 C0 3 0 3 0 0 Z " fill="#5B5B5B" transform="translate(557,364)"/>
<path d="M0 0 C1.09658936 3.28976808 0.79953138 4.71303767 0 8 C-0.61488281 7.94199219 -1.22976562 7.88398438 -1.86328125 7.82421875 C-4.31499225 7.68736088 -6.56579075 7.66707973 -9 8 C-12.58506833 11.58506833 -12.58940061 16.1549272 -13 21 C-9.7 21 -6.4 21 -3 21 C-3 22.98 -3 24.96 -3 27 C-6.3 27 -9.6 27 -13 27 C-13 39.54 -13 52.08 -13 65 C-15.64 65 -18.28 65 -21 65 C-21 52.46 -21 39.92 -21 27 C-22.98 27 -24.96 27 -27 27 C-27 25.02 -27 23.04 -27 21 C-25.02 21 -23.04 21 -21 21 C-21.03480469 20.34773438 -21.06960937 19.69546875 -21.10546875 19.0234375 C-21.33027371 11.76544889 -20.35248209 7.77472246 -15.5625 2.125 C-11.13383196 -1.402158 -5.33632737 -0.38856753 0 0 Z " fill="#5C5C5C" transform="translate(244,433)"/>
<path d="M0 0 C2.3671875 1.0234375 2.3671875 1.0234375 4 2 C3.625 4.9375 3.625 4.9375 3 8 C0.35438622 9.32280689 -0.59036136 8.64974185 -3.375 7.8125 C-5.74395535 7.16722682 -5.74395535 7.16722682 -8 7 C-10.61106131 8.68916631 -10.61106131 8.68916631 -12 11 C-11.0558769 14.28776986 -10.44010131 15.70939342 -7.5390625 17.625 C-6.57742188 18.07875 -5.61578125 18.5325 -4.625 19 C2.82090094 22.83990179 2.82090094 22.83990179 5 27 C6.45809245 33.02678215 6.15281325 36.45539738 3 42 C-1.09167815 45.83594827 -4.91978591 46.15629168 -10.375 46.1875 C-11.49648438 46.20167969 -12.61796875 46.21585937 -13.7734375 46.23046875 C-16.94884842 46.00365368 -19.14234718 45.35390668 -22 44 C-21.34 41.69 -20.68 39.38 -20 37 C-18.2365625 37.5259375 -18.2365625 37.5259375 -16.4375 38.0625 C-12.3541464 39.07789876 -9.12500464 39.07250121 -5 38 C-2.73857742 35.25305475 -2.73857742 35.25305475 -3.125 32.5 C-4.23366318 29.33239091 -5.11538938 28.70118062 -8 27 C-9.33257654 26.37338804 -10.66598128 25.74853575 -12 25.125 C-15.67785359 23.31004432 -17.89127572 21.62700577 -20 18 C-21.159908 13.82433119 -21.14098096 11.48928685 -19.9375 7.3125 C-15.23919914 -0.72007889 -8.61260651 -1.03159354 0 0 Z " fill="#5B5B5B" transform="translate(692,363)"/>
<path d="M0 0 C0 4.29 0 8.58 0 13 C3.3 13 6.6 13 10 13 C10 14.98 10 16.96 10 19 C6.7 19 3.4 19 0 19 C0.1181656 23.09362106 0.24240784 27.18700767 0.37231445 31.28027344 C0.41565846 32.6731259 0.45733396 34.06603131 0.49731445 35.45898438 C0.55502932 37.45976651 0.61921869 39.46035859 0.68359375 41.4609375 C0.72025146 42.66540527 0.75690918 43.86987305 0.79467773 45.11083984 C0.81052987 47.93996367 0.81052987 47.93996367 2 50 C3.89533342 50.46523063 3.89533342 50.46523063 6.0625 50.625 C8.0115625 50.810625 8.0115625 50.810625 10 51 C10.04254356 52.99954746 10.04080783 55.00041636 10 57 C8.28310511 58.71689489 6.09121863 58.25303054 3.75 58.3125 C-0.11907847 58.28235134 -1.71238286 58.16681794 -5.125 56.1875 C-8.43831232 52.32196896 -8.13407128 48.53630379 -8.09765625 43.70703125 C-8.0962413 43.00100266 -8.09482635 42.29497406 -8.09336853 41.56755066 C-8.08777764 39.31582374 -8.07522688 37.06419679 -8.0625 34.8125 C-8.05748382 33.28450665 -8.05292112 31.75651173 -8.04882812 30.22851562 C-8.0378112 26.48563865 -8.02055287 22.74283627 -8 19 C-10.31 19 -12.62 19 -15 19 C-15 17.02 -15 15.04 -15 13 C-12.69 13 -10.38 13 -8 13 C-8 9.37 -8 5.74 -8 2 C-2.25 0 -2.25 0 0 0 Z " fill="#5B5B5B" transform="translate(275,441)"/>
<path d="M0 0 C0 4.29 0 8.58 0 13 C3.3 13 6.6 13 10 13 C10 14.98 10 16.96 10 19 C6.7 19 3.4 19 0 19 C0.1181656 23.09362106 0.24240784 27.18700767 0.37231445 31.28027344 C0.41565846 32.6731259 0.45733396 34.06603131 0.49731445 35.45898438 C0.55502932 37.45976651 0.61921869 39.46035859 0.68359375 41.4609375 C0.72025146 42.66540527 0.75690918 43.86987305 0.79467773 45.11083984 C0.81052987 47.93996367 0.81052987 47.93996367 2 50 C3.89533342 50.46523063 3.89533342 50.46523063 6.0625 50.625 C8.0115625 50.810625 8.0115625 50.810625 10 51 C10.04254356 52.99954746 10.04080783 55.00041636 10 57 C8.28310511 58.71689489 6.09121863 58.25303054 3.75 58.3125 C-0.11907847 58.28235134 -1.71238286 58.16681794 -5.125 56.1875 C-8.43831232 52.32196896 -8.13407128 48.53630379 -8.09765625 43.70703125 C-8.0962413 43.00100266 -8.09482635 42.29497406 -8.09336853 41.56755066 C-8.08777764 39.31582374 -8.07522688 37.06419679 -8.0625 34.8125 C-8.05748382 33.28450665 -8.05292112 31.75651173 -8.04882812 30.22851562 C-8.0378112 26.48563865 -8.02055287 22.74283627 -8 19 C-10.31 19 -12.62 19 -15 19 C-15 17.02 -15 15.04 -15 13 C-12.69 13 -10.38 13 -8 13 C-8 9.37 -8 5.74 -8 2 C-2.25 0 -2.25 0 0 0 Z " fill="#5B5B5B" transform="translate(737,351)"/>
<path d="M0 0 C0 2.64 0 5.28 0 8 C-1.258125 8.2475 -2.51625 8.495 -3.8125 8.75 C-6.68972291 9.46676401 -7.79652025 9.79652025 -9.9375 11.9375 C-11.9470186 15.83833022 -12.17915853 19.0848622 -12.31640625 23.41796875 C-12.35830078 24.67158203 -12.40019531 25.92519531 -12.44335938 27.21679688 C-12.48267578 28.52712891 -12.52199219 29.83746094 -12.5625 31.1875 C-12.60570992 32.52279978 -12.649325 33.85808652 -12.69335938 35.19335938 C-12.79956502 38.46213297 -12.90160997 41.73098333 -13 45 C-15.64 45 -18.28 45 -21 45 C-21.33 30.48 -21.66 15.96 -22 1 C-19.36 1 -16.72 1 -14 1 C-13.67 2.32 -13.34 3.64 -13 5 C-12.154375 4.175 -11.30875 3.35 -10.4375 2.5 C-7.03972892 -0.3787798 -4.43607134 -0.44360713 0 0 Z " fill="#5B5B5B" transform="translate(666,363)"/>
<path d="M0 0 C0 2.64 0 5.28 0 8 C-1.258125 8.2475 -2.51625 8.495 -3.8125 8.75 C-6.68972291 9.46676401 -7.79652025 9.79652025 -9.9375 11.9375 C-11.9470186 15.83833022 -12.17915853 19.0848622 -12.31640625 23.41796875 C-12.35830078 24.67158203 -12.40019531 25.92519531 -12.44335938 27.21679688 C-12.48267578 28.52712891 -12.52199219 29.83746094 -12.5625 31.1875 C-12.60570992 32.52279978 -12.649325 33.85808652 -12.69335938 35.19335938 C-12.79956502 38.46213297 -12.90160997 41.73098333 -13 45 C-15.64 45 -18.28 45 -21 45 C-21.33 30.48 -21.66 15.96 -22 1 C-19.36 1 -16.72 1 -14 1 C-13.67 2.32 -13.34 3.64 -13 5 C-12.154375 4.175 -11.30875 3.35 -10.4375 2.5 C-7.03972892 -0.3787798 -4.43607134 -0.44360713 0 0 Z " fill="#5B5B5B" transform="translate(299,363)"/>
<path d="M0 0 C2.64 0 5.28 0 8 0 C8 14.52 8 29.04 8 44 C5.36 44 2.72 44 0 44 C0 29.48 0 14.96 0 0 Z " fill="#5C5C5C" transform="translate(707,364)"/>
<path d="M0 0 C2.64 0 5.28 0 8 0 C8 14.52 8 29.04 8 44 C5.36 44 2.72 44 0 44 C0 29.48 0 14.96 0 0 Z " fill="#5C5C5C" transform="translate(542,364)"/>
<path d="M0 0 C2.64 0 5.28 0 8 0 C8 14.52 8 29.04 8 44 C5.36 44 2.72 44 0 44 C0 29.48 0 14.96 0 0 Z " fill="#5C5C5C" transform="translate(307,364)"/>
<path d="M0 0 C6.93 0 13.86 0 21 0 C21 1.98 21 3.96 21 6 C14.07 6 7.14 6 0 6 C0 4.02 0 2.04 0 0 Z " fill="#5C5C5C" transform="translate(146,381)"/>
<path d="M0 0 C0.99 0.103125 1.98 0.20625 3 0.3125 C5 3.3125 5 3.3125 4.625 6.5 C4.41875 7.428125 4.2125 8.35625 4 9.3125 C0.625 9.9375 0.625 9.9375 -3 10.3125 C-5 8.3125 -5 8.3125 -5.25 5.3125 C-4.90578549 1.18192588 -4.11441953 0.42858537 0 0 Z " fill="#5B5B5B" transform="translate(711,346.6875)"/>
<path d="M0 0 C0.99 0.103125 1.98 0.20625 3 0.3125 C5 3.3125 5 3.3125 4.625 6.5 C4.41875 7.428125 4.2125 8.35625 4 9.3125 C0.625 9.9375 0.625 9.9375 -3 10.3125 C-5 8.3125 -5 8.3125 -5.25 5.3125 C-4.90578549 1.18192588 -4.11441953 0.42858537 0 0 Z " fill="#5B5B5B" transform="translate(546,346.6875)"/>
<path d="M0 0 C0.99 0.103125 1.98 0.20625 3 0.3125 C5 3.3125 5 3.3125 4.625 6.5 C4.41875 7.428125 4.2125 8.35625 4 9.3125 C0.625 9.9375 0.625 9.9375 -3 10.3125 C-5 8.3125 -5 8.3125 -5.25 5.3125 C-4.90578549 1.18192588 -4.11441953 0.42858537 0 0 Z " fill="#5B5B5B" transform="translate(311,346.6875)"/>
</svg>
