<?xml version="1.0" encoding="utf-8"?>
<!-- Generator: Adobe Illustrator 24.3.0, SVG Export Plug-In . SVG Version: 6.00 Build 0)  -->
<svg version="1.1" id="Ebene_1" xmlns="http://www.w3.org/2000/svg" xmlns:xlink="http://www.w3.org/1999/xlink" x="0px" y="0px"
	 viewBox="0 0 600 440" style="enable-background:new 0 0 600 440;" xml:space="preserve">
<path d="M296.8,136.9h-6c-71.3,0-142.7,0-214,0c-31,0-57.7-20.8-64.8-50.3C3.1,51,24.7,15,60.3,6.1c5.3-1.3,10.6-2,16.1-2
	c36.8-0.3,73.7,0,110.5,0c60.7,0,121.3,0,182,0c30.5,0,56.2,19.3,64.7,47.9c3.8,12.9,2.2,25.8,1,38.7c-2.9,29.5-5.7,59-8.6,88.6
	c-3.2,33.3-6.4,66.7-9.6,100c-3.1,32.8-6.3,65.7-9.4,98.5c-1.8,18.6-3.6,37.1-5.5,56.5c-4.2-0.8-8-1.4-11.8-2.3
	c-26.1-5.8-50.9-14.7-72-31.7c-28.1-22.5-40-52.5-37.1-87.8c4.8-57.1,10.8-114.1,16.2-171.2C296.9,140.1,296.8,138.7,296.8,136.9z"
	/>
<path d="M416.8,437.1C429.6,303.6,442.3,172,455,40.2h134.8c-0.7,7.6-1.3,15-2,22.4c-5.5,57-11.1,114.1-16.6,171.1
	c-2.4,25-4.6,50.1-7.1,75.1c-5.9,59.5-49.9,109.7-108.2,122.9C443.5,434.6,430.6,435.3,416.8,437.1z M476.9,282.8
	c19.7,0,38.9,0.6,58-0.2c8.7-0.4,16-5.5,20.8-13.2c8.5-13.8,3.5-29.7-11.2-35c-13-4.7-25.3-2.8-36.5,5.4c-4.8,3.5-8.6,8.1-9,14.4
	c-0.2,3.7,0.6,7.4,1,11.4c-6,0-12.2-0.2-18.3,0.1c-1.3,0.1-3.3,1.6-3.5,2.7C477.4,273.2,477.3,278,476.9,282.8z M517.6,80.1
	c-0.6,5.7-1.1,11-1.7,16.5h58.4l1.7-17.5c-10.9,0-21.2,0-31.5,0c-2.3,0.1-4.6-0.1-6.9-0.7c-1.4-0.7-2.4-2-2.6-3.6
	c0.3-1.5,1.2-2.9,2.6-3.6c1.5-0.8,3.6-0.7,5.4-0.8c7.7-0.1,15.3,0,23,0H577c0.6-6.2,1.1-11.6,1.6-17.5c-10.4,0-20.2-0.1-30,0
	c-5.8,0-11.6,0.3-17.4,1.1c-5.7,0.9-11,3.5-13,9.6s0.9,11,5.4,15c0.2,0.2,0.2,0.6,0.4,1.2L517.6,80.1z M544.4,205.9
	c-5-6.2-9.5-11.7-14.1-17.2c-6.9-8.4-8.2-8.5-16.9-1.7c-1.2,0.9-2.3,1.9-3.3,3c-11.9,12.4-7.9,30.8,8.1,37c7.2,2.8,15,3.4,22.6,1.7
	c20.2-4.4,30-24.9,20.3-42.3c-0.7-1.3-2.2-3.2-3.3-3.2c-6.2,0.1-12.5,0.7-19.4,1.2C543.5,191,547.9,196.9,544.4,205.9L544.4,205.9z
	 M569.9,144.3c0.5-5.9,1-11.3,1.5-17.2h-29.6c-15.6,0-31.3-0.1-46.9,0.1c-1.6,0-4.3,1.2-4.5,2.3c-0.9,4.8-1,9.7-1.5,14.8
	L569.9,144.3z M507.8,176.8c19.4,0,38,0,56.6-0.1c1-0.1,2-0.8,2.4-1.8c0.6-5,1-10.1,1.4-15.6c-9.5,0-18.1,0.1-26.7,0
	c-8.9-0.2-10.7-1.8-12-10.6h-20.4c-1.2,5.6,2,8.7,6.9,11.5l-6.8,0.8C508.8,166.1,508.3,171,507.8,176.8L507.8,176.8z M513.7,121.3
	H572c0.6-5.8,1.1-11.1,1.7-17.1c-19.1,0-37.6,0-56,0.1c-1.2,0.3-2.1,1.2-2.5,2.3C514.5,111.3,514.2,116.1,513.7,121.3L513.7,121.3z
	 M491.9,104.5c-0.6,5.7-1.1,11.1-1.7,16.9h18.6c0.5-5.7,1.1-11.1,1.6-16.9H491.9z"/>
<path d="M242.5,399.8H121.3c7.9-82.5,15.9-164.8,23.8-247.5h121.1C258.4,234.6,250.5,316.9,242.5,399.8z"/>
<path d="M537.9,257.9c0,4.1-4.2,7.5-9.4,7.6c-4.9,0.1-8.4-2.6-8.5-6.5c0-4.1,4.1-7.5,9.4-7.6C534.2,251.3,537.9,254.1,537.9,257.9z"
	/>
<path d="M524.5,199.9l9,11.1c-5.1,1.9-9.9,0.7-11.9-2.8C520,205.3,520.9,202.3,524.5,199.9z"/>
</svg>
